<svg width="80" height="80" viewBox="0 0 80 80" fill="none" xmlns="http://www.w3.org/2000/svg">
<path d="M40.0003 78.0293C61.002 78.0293 78.0273 61.0037 78.0273 40.0016C78.0273 18.9994 61.002 1.97382 40.0003 1.97382C18.9986 1.97382 1.97339 18.9994 1.97339 40.0016C1.97339 61.0037 18.9986 78.0293 40.0003 78.0293Z" fill="url(#paint0_linear_14_96)"/>
<path opacity="0.16" d="M44.894 64.5326C23.8944 64.5326 6.86711 47.5088 6.86711 26.5048C6.86711 24.4683 7.02971 22.4744 7.33557 20.5231C3.93242 26.2183 1.97339 32.8776 1.97339 39.9977C1.97339 60.9977 18.9969 78.0254 40.0003 78.0254C58.9673 78.0254 74.6861 64.1377 77.5549 45.9794C70.919 57.0912 58.7738 64.5326 44.894 64.5326Z" fill="#A00100"/>
<path d="M40.0817 80C38.4053 80 36.7173 79.8955 35.0254 79.6825C24.4249 78.3545 14.9782 72.9767 8.42355 64.5442C1.86892 56.1078 -1.01155 45.6271 0.316407 35.0264C1.64437 24.4257 7.02203 14.9788 15.4544 8.42399C23.8906 1.86534 34.3749 -1.01133 44.9754 0.316662C55.5759 1.64465 65.0226 7.02244 71.5772 15.455C78.1319 23.8914 81.0123 34.3721 79.6844 44.9728C78.3564 55.5735 72.9787 65.0204 64.5464 71.5752C57.4575 77.0885 48.9167 80 40.0817 80ZM39.9268 3.9367C31.9591 3.9367 24.2623 6.5617 17.8703 11.5291C10.2664 17.4412 5.41918 25.9589 4.21898 35.5142C3.02265 45.0696 5.61663 54.5242 11.5286 62.1283C17.4405 69.7323 25.9581 74.5796 35.5132 75.7798C45.0683 76.9762 54.5228 74.3822 62.1266 68.4701C69.7305 62.558 74.5777 54.0403 75.7779 44.4849C76.9743 34.9296 74.3803 25.4788 68.4683 17.8709C62.5602 10.2669 54.0427 5.41955 44.4837 4.21933C42.9622 4.02962 41.4406 3.9367 39.9268 3.9367Z" fill="url(#paint1_linear_14_96)"/>
<path opacity="0.33" d="M69.765 30.3804C66.7684 34.7206 61.112 24.4025 51.8705 18.0181C42.6251 11.6337 33.2946 11.5988 36.2912 7.25867C39.2878 2.91851 49.2107 4.57559 58.4561 10.96C67.7015 17.3444 72.7616 26.0402 69.765 30.3804Z" fill="white"/>
<path d="M56.0869 48.639L48.061 41.0969C47.2945 40.3768 47.2596 39.1727 47.9797 38.41L55.5216 30.384C57.3065 28.483 57.2174 25.494 55.3164 23.7092C53.4155 21.9243 50.4266 22.0134 48.6418 23.9144L40.8482 31.7623C40.1242 32.494 38.9473 32.5134 38.1962 31.8087L30.3833 24.4796C28.4823 22.6948 25.4934 22.7838 23.7086 24.6848C21.9238 26.5858 22.0167 29.5748 23.9138 31.3596L31.7228 38.6888C32.4739 39.3934 32.5281 40.5704 31.8429 41.3409L24.479 49.6185C22.6942 51.5195 22.7833 54.5085 24.6842 56.2933C26.5852 58.0782 29.5741 57.9891 31.3589 56.0881L38.653 47.8879C39.3654 47.0865 40.5966 47.0323 41.3786 47.7679L49.6174 55.5229C51.5184 57.3077 54.5073 57.2187 56.2921 55.3177C58.0808 53.4128 57.9879 50.4239 56.0869 48.639Z" fill="white"/>
<defs>
<linearGradient id="paint0_linear_14_96" x1="65.0262" y1="8.92873" x2="7.31874" y2="80.5752" gradientUnits="userSpaceOnUse">
<stop stop-color="#FF8B8B"/>
<stop offset="0.7464" stop-color="#FF5654"/>
<stop offset="1" stop-color="#E51413"/>
</linearGradient>
<linearGradient id="paint1_linear_14_96" x1="66.325" y1="7.31562" x2="5.62507" y2="82.6798" gradientUnits="userSpaceOnUse">
<stop stop-color="#E46E6E"/>
<stop offset="0.431658" stop-color="#EC504E"/>
<stop offset="1" stop-color="#B10C0B"/>
</linearGradient>
</defs>
</svg>
