<svg width="80" height="80" viewBox="0 0 80 80" fill="none" xmlns="http://www.w3.org/2000/svg">
<path d="M40.0025 78.0293C61.0052 78.0293 78.0312 61.0037 78.0312 40.0016C78.0312 18.9994 61.0052 1.97382 40.0025 1.97382C18.9999 1.97382 1.97388 18.9994 1.97388 40.0016C1.97388 61.0037 18.9999 78.0293 40.0025 78.0293Z" fill="url(#paint0_linear_14_112)"/>
<path opacity="0.16" d="M44.8926 64.5326C23.8921 64.5326 6.86394 47.5087 6.86394 26.5048C6.86394 24.4683 7.02656 22.4744 7.33243 20.523C3.92913 26.2222 1.97388 32.8815 1.97388 40.0015C1.97388 61.0016 18.9981 78.0293 40.0026 78.0293C58.9704 78.0293 74.6899 64.1415 77.5589 45.9833C70.9188 57.0912 58.7769 64.5326 44.8926 64.5326Z" fill="#23A000"/>
<path d="M31.2019 56.2161L19.6291 46.4362C17.67 44.7791 17.4222 41.8482 19.0793 39.8853C20.7365 37.9262 23.6674 37.6784 25.6304 39.3355L30.5321 43.4782C32.3402 45.0075 35.0233 44.8643 36.6611 43.1568L55.2573 23.7635C57.0344 21.909 59.977 21.8509 61.8277 23.6242C63.6823 25.4013 63.7403 28.3438 61.9671 30.1944L37.327 55.887C35.6932 57.606 33.0061 57.7454 31.2019 56.2161Z" fill="white"/>
<path d="M40.0799 80C38.4034 80 36.7153 79.8955 35.0233 79.6825C24.4224 78.3545 14.9753 72.9767 8.42033 64.5442C1.8654 56.1078 -1.01134 45.6271 0.316685 35.0264C1.64471 24.4257 7.02261 14.9788 15.4554 8.42399C23.892 1.86534 34.3729 -1.01133 44.9738 0.316662C55.5748 1.64465 65.0219 7.02244 71.5768 15.455C78.1318 23.8914 81.0124 34.3721 79.6844 44.9728C78.3563 55.5735 72.9784 65.0204 64.5457 71.5752C57.4564 77.0885 48.9192 80 40.0799 80ZM39.9289 3.9367C31.9608 3.9367 24.2637 6.5617 17.8713 11.5291C10.2672 17.4412 5.41969 25.9589 4.21944 35.5142C3.02306 45.0696 5.61715 54.5242 11.5294 62.1283C17.4416 69.7323 25.9595 74.5796 35.5151 75.7798C45.0745 76.9762 54.5255 74.3822 62.1297 68.4701C69.7339 62.558 74.5813 54.0403 75.7816 44.4849C76.978 34.9296 74.3839 25.4788 68.4717 17.8709C62.5595 10.2669 54.0415 5.41955 44.486 4.21933C42.9605 4.02962 41.4389 3.9367 39.9289 3.9367Z" fill="url(#paint1_linear_14_112)"/>
<path opacity="0.33" d="M69.765 30.3804C66.7682 34.7206 61.1116 24.4025 51.8696 18.0181C42.6277 11.6337 33.2928 11.5988 36.2896 7.25867C39.2863 2.91851 49.2097 4.57559 58.4555 10.96C67.7013 17.3444 72.7618 26.0402 69.765 30.3804Z" fill="white"/>
<defs>
<linearGradient id="paint0_linear_14_112" x1="72.8907" y1="-0.834724" x2="15.1838" y2="70.8143" gradientUnits="userSpaceOnUse">
<stop stop-color="#99EEAB"/>
<stop offset="0.6643" stop-color="#77E275"/>
<stop offset="1" stop-color="#35DC5A"/>
</linearGradient>
<linearGradient id="paint1_linear_14_112" x1="74.5938" y1="-2.9542" x2="13.8938" y2="72.41" gradientUnits="userSpaceOnUse">
<stop stop-color="#8AD79B"/>
<stop offset="0.6643" stop-color="#69CE67"/>
<stop offset="1" stop-color="#2DB04A"/>
</linearGradient>
</defs>
</svg>
